# xmcd CD database file
#
# Track frame offsets:
#	150
#	12307
#	23618
#	35240
#	48423
#	57944
#	69215
#	81804
#	94247
#	105298
#	115259
#	127618
#	138207
#	150873
#	162394
#	174033
#	185078
#	199944
#	211168
#	220445
#	233153
#	242925
#	255659
#	266123
#
# Disc length: 3721 seconds
#
# Revision: 1
# Processed by: cddbd v1.5.2PL0 Copyright (c) Steve Scherf et al.
# Submitted via: CDex 1.81
#
DISCID=420e8718
DTITLE=Various Artist - Country's Finest
DYEAR=2004
DGENRE=Country
TTITLE0=Goodnight Sweetheart (The Moonglows)
TTITLE1=Walkin' After Midnight (Patsy Cline)
TTITLE2=Elvira (Kenny Rogers)
TTITLE3=Ruby Tuesday (Don Williams)
TTITLE4=From A Jack To A King (Ned Miller)
TTITLE5=Love Is A Golden Ring (Frankie Laine)
TTITLE6=I Never Promised You A Rose Garden (Lynn Anderson)
TTITLE7=Moonlight Gambler (Frankie Laine)
TTITLE8=Home Made Lies (Kenny Rogers)
TTITLE9=Wings Of A Dove (Ferlin Husky)
TTITLE10=Stand By Your Man (Lynn Anderson)
TTITLE11=Gone (Ferlin Husky)
TTITLE12=I Just Don't Understand (Willie Nelson)
TTITLE13=In Care Of The Blues (Patsy Cline)
TTITLE14=Settin' The Woods On Fire (Hank Williams)
TTITLE15=Stop, Look And Listen (Patsy Cline)
TTITLE16=I Dreamed Of A Hillbilly Heaven (Tex Ritter)
TTITLE17=Send Me The Pillow You Dream On (Hank Locklin)
TTITLE18=Six Days On The Road (Dave Dudley)
TTITLE19=Little Blossom (Dolly Parton)
TTITLE20=I Didn't Sleep A Wink (Willie Nelson)
TTITLE21=Where Do We Go From Here (Don Williams)
TTITLE22=Dream Baby (Waylon Jennings)
TTITLE23=Wedding Bells (Hank Williams)
EXTD=YEAR: 2004
EXTT0=
EXTT1=
EXTT2=
EXTT3=
EXTT4=
EXTT5=
EXTT6=
EXTT7=
EXTT8=
EXTT9=
EXTT10=
EXTT11=
EXTT12=
EXTT13=
EXTT14=
EXTT15=
EXTT16=
EXTT17=
EXTT18=
EXTT19=
EXTT20=
EXTT21=
EXTT22=
EXTT23=
PLAYORDER=
